<svg width="22" height="22" viewBox="0 0 22 22" fill="none" xmlns="http://www.w3.org/2000/svg">
<path id="Vector" fill-rule="evenodd" clip-rule="evenodd" d="M0 11C0 4.92487 4.92487 0 11 0C17.0751 0 22 4.92487 22 11C22 17.0751 17.0751 22 11 22C4.92487 22 0 17.0751 0 11ZM6.75736 6.05025C7.14788 5.65973 7.78105 5.65973 8.17157 6.05025L11 8.87868L13.8284 6.05025C14.219 5.65973 14.8521 5.65973 15.2426 6.05025L15.9497 6.75736C16.3403 7.14788 16.3403 7.78105 15.9497 8.17157L13.1213 11L15.9497 13.8284C16.3403 14.219 16.3403 14.8521 15.9497 15.2426L15.2426 15.9497C14.8521 16.3403 14.219 16.3403 13.8284 15.9497L11 13.1213L8.17157 15.9497C7.78105 16.3403 7.14788 16.3403 6.75736 15.9497L6.05025 15.2426C5.65973 14.8521 5.65973 14.219 6.05025 13.8284L8.87868 11L6.05025 8.17157C5.65973 7.78105 5.65973 7.14788 6.05025 6.75736L6.75736 6.05025Z" fill="black"/>
</svg>
