<svg width="20" height="20" viewBox="0 0 20 20" fill="none" xmlns="http://www.w3.org/2000/svg">
<g id="phone-incoming-solid">
<g id="Vector">
<path d="M19.4073 2.35703C19.7327 2.03159 19.7327 1.50395 19.4073 1.17852L18.818 0.589262C18.4926 0.263825 17.9649 0.263825 17.6395 0.589262L14.104 4.12481L12.6308 2.65162C12.3924 2.41329 12.034 2.34199 11.7226 2.47098C11.4112 2.59996 11.2082 2.90382 11.2082 3.24088V7.95492C11.2082 8.41516 11.5813 8.78826 12.0415 8.78826H16.7555C17.0926 8.78826 17.3965 8.58522 17.5254 8.27382C17.6544 7.96243 17.5831 7.604 17.3448 7.36567L15.8717 5.89258L19.4073 2.35703Z" fill="white"/>
<path d="M1.67157 3.78472C1.58749 2.59364 2.59609 1.66667 3.78768 1.66667H6.33838C6.95005 1.66667 7.50173 2.03522 7.73698 2.60101L8.80361 5.16622C9.06344 5.79111 8.87904 6.51288 8.35151 6.93577L7.68662 7.46879C7.3899 7.70666 7.28902 8.11683 7.46495 8.45398C8.36912 10.1868 9.70533 11.6574 11.3303 12.7222C11.6734 12.947 12.1264 12.8576 12.3823 12.5371L13.0751 11.6692C13.4972 11.1406 14.2174 10.9558 14.841 11.2162L17.4009 12.285C17.9655 12.5208 18.3333 13.0736 18.3333 13.6865V14.5722H18.2991V16.2082C18.2991 17.4023 17.3741 18.4129 16.1855 18.3284C8.58512 17.7877 2.21039 11.4181 1.67157 3.78472Z" fill="white"/>
</g>
</g>
</svg>
